<svg viewBox="0 0 32 32" fill="none" xmlns="http://www.w3.org/2000/svg"><path d="M0 16c0 8.837 7.163 16 16 16s16-7.163 16-16S24.837 0 16 0 0 7.163 0 16z" fill="#00B259"></path><path d="M20.17 10H12a6 6 0 00-6 5.83A5.91 5.91 0 0011.83 22a5.67 5.67 0 002.91-.8 2.4 2.4 0 011.26-.34 2.53 2.53 0 011.26.34 5.67 5.67 0 003.29.79A5.92 5.92 0 0026 16.42 5.91 5.91 0 0020.17 10zM13 17h-1v1a1 1 0 01-2 0v-1H9a1 1 0 010-2h1v-1a1 1 0 112 0v1h1a1 1 0 010 2zm8-4a1 1 0 110 2 1 1 0 010-2zm-2 4a1 1 0 110-2 1 1 0 010 2zm2 2a1 1 0 110-2 1 1 0 010 2zm2-2a1 1 0 110-2 1 1 0 010 2z" fill="#fff"></path></svg>