<svg xmlns="http://www.w3.org/2000/svg" viewBox="0 0 32 31.88"><defs><style>.cls-1{fill:#d65f3a;}.cls-2{fill:#fff;}</style></defs><g id="Layer_2" data-name="Layer 2"><g id="Layer_1-2" data-name="Layer 1"><g id="JioMeet-Logo"><path id="Path_68901" data-name="Path 68901" class="cls-1" d="M32,15.94A16,16,0,1,1,16,0,16,16,0,0,1,32,15.94h0"/><path id="Subtraction_3" data-name="Subtraction 3" class="cls-2" d="M18.05,21.46H9.38A3.26,3.26,0,0,1,6.12,18.2V13.67a3.26,3.26,0,0,1,3.26-3.25h8.67a3.26,3.26,0,0,1,3.26,3.25.25.25,0,0,0,.25.25.24.24,0,0,0,.15-.06l2.61-2.07a.92.92,0,0,1,1.29,0h0a.92.92,0,0,1,.26.65v7a.91.91,0,0,1-.91.91,1,1,0,0,1-.65-.27L21.71,18a.3.3,0,0,0-.15-.05.25.25,0,0,0-.25.24A3.26,3.26,0,0,1,18.05,21.46Zm-1.18-7.11a2.13,2.13,0,0,0-2.31,2.18,2.1,2.1,0,0,0,2.28,2.2,2.1,2.1,0,0,0,2.3-2.19A2.11,2.11,0,0,0,16.87,14.35ZM8.46,16.8a.87.87,0,0,0-.54.85c0,.69.66,1.08,1.81,1.08a2.16,2.16,0,0,0,1.62-.55,2.4,2.4,0,0,0,.56-1.73V13.91c0-.52-.25-.79-.74-.79h-.24c-.47,0-.72.27-.72.79v2.52c0,.63-.21.87-.74.87a1.25,1.25,0,0,1-1-.5Zm4.76-2.41c-.49,0-.73.27-.73.79v2.69a.67.67,0,0,0,.74.79h.17c.47,0,.71-.27.71-.79V15.18c0-.54-.22-.79-.72-.79Zm.07-2a.75.75,0,0,0-.85.76.77.77,0,0,0,.88.77.75.75,0,0,0,.85-.77C14.17,12.73,13.84,12.44,13.29,12.44Zm3.56,5a.89.89,0,0,1-.91-1,1,1,0,0,1,.25-.68.94.94,0,0,1,1.32,0,1,1,0,0,1,.25.69,1,1,0,0,1-.26.68A.84.84,0,0,1,16.85,17.49Z"/></g></g></g></svg>