<svg width="24" height="24" viewBox="0 0 24 24" fill="none" xmlns="http://www.w3.org/2000/svg">
<g clip-path="url(#clip0_1_11)">
<path d="M8.32501 0.0750014C3.96095 0.665626 0.562512 4.14844 0.0421994 8.55C0.00938691 8.84531 -0.00467559 9.375 0.0140744 9.97969C0.0468869 11.2594 0.215637 12.0984 0.665637 13.2328C1.71564 15.8953 3.89532 17.9484 6.61407 18.8391C7.64532 19.1766 8.50782 19.3125 9.6422 19.3125C11.6578 19.3125 13.4203 18.7828 15.0891 17.6625L15.5766 17.3344L18.8156 20.5734C21.3 23.0531 22.1016 23.8313 22.2656 23.9016C22.5563 24.0328 23.0531 24.0328 23.325 23.9016C23.5547 23.7938 23.8406 23.4984 23.9344 23.2688C24.0328 23.0344 24.0188 22.5188 23.9016 22.2656C23.8313 22.1016 23.0578 21.3047 20.5734 18.8156L17.3344 15.5766L17.6344 15.1359C18.4828 13.8938 19.05 12.4219 19.2422 10.9453C19.3313 10.2516 19.3313 9.06094 19.2422 8.38125C18.8063 5.0625 16.6688 2.18906 13.6313 0.834376C12.75 0.440626 11.9438 0.210939 10.9453 0.0703139C10.3594 -0.0140611 8.95314 -0.0140611 8.32501 0.0750014ZM11.0859 2.56875C12.5531 2.8875 13.6734 3.50156 14.7469 4.57031C15.4219 5.24531 15.7922 5.75625 16.1719 6.53906C17.7234 9.75938 16.6453 13.6828 13.6641 15.6656C12.5063 16.4344 11.325 16.8094 9.91407 16.8609C7.7672 16.9359 5.92032 16.1766 4.40157 14.5922C3.48282 13.6313 2.86407 12.4547 2.5547 11.0625C2.43751 10.5328 2.4047 9.1875 2.49845 8.59688C2.85001 6.40781 4.11564 4.55156 6.05626 3.39844C6.75001 2.98594 7.69689 2.65313 8.60157 2.50313C9.14532 2.41406 10.5375 2.45156 11.0859 2.56875Z" fill="white"/>
</g>
<defs>
<clipPath id="clip0_1_11">
<rect width="24" height="24" fill="white"/>
</clipPath>
</defs>
</svg>
